G04 #@! TF.FileFunction,Soldermask,Top*
%FSLAX46Y46*%
G04 Gerber Fmt 4.6, Leading zero omitted, Abs format (unit mm)*
G04 Created by KiCad (PCBNEW 4.0.0-rc2-stable) date 31.05.2016 08:08:33*
%MOMM*%
G01*
G04 APERTURE LIST*
%ADD10C,0.100000*%
%ADD11R,1.700000X1.700000*%
%ADD12C,1.700000*%
%ADD13O,2.000000X2.000000*%
%ADD14C,2.127200*%
%ADD15R,2.432000X2.432000*%
%ADD16O,2.432000X2.432000*%
%ADD17R,2.127200X2.432000*%
%ADD18O,2.127200X2.432000*%
G04 APERTURE END LIST*
D10*
D11*
X146177000Y-78740000D03*
D12*
X146177000Y-81240000D03*
D11*
X155067000Y-85090000D03*
D12*
X152567000Y-85090000D03*
D13*
X125857000Y-78740000D03*
X125857000Y-81280000D03*
X125857000Y-83820000D03*
X125857000Y-86360000D03*
X125857000Y-88900000D03*
X125857000Y-91440000D03*
X125857000Y-93980000D03*
X125857000Y-96520000D03*
X125857000Y-99060000D03*
X125857000Y-101600000D03*
X125857000Y-104140000D03*
X125857000Y-106680000D03*
X125857000Y-109220000D03*
X125857000Y-111760000D03*
X141097000Y-111760000D03*
X141097000Y-109220000D03*
X141097000Y-106680000D03*
X141097000Y-104140000D03*
X141097000Y-101600000D03*
X141097000Y-99060000D03*
X141097000Y-96520000D03*
X141097000Y-93980000D03*
X141097000Y-91440000D03*
X141097000Y-88900000D03*
X141097000Y-86360000D03*
X141097000Y-83820000D03*
X141097000Y-81280000D03*
X141097000Y-78740000D03*
X128397000Y-78740000D03*
X128397000Y-81280000D03*
X128397000Y-83820000D03*
X128397000Y-86360000D03*
X128397000Y-88900000D03*
X128397000Y-91440000D03*
X128397000Y-93980000D03*
X128397000Y-96520000D03*
X128397000Y-99060000D03*
X128397000Y-101600000D03*
X128397000Y-104140000D03*
X128397000Y-106680000D03*
X128397000Y-109220000D03*
X128397000Y-111760000D03*
X143637000Y-111760000D03*
X143637000Y-109220000D03*
X143637000Y-106680000D03*
X143637000Y-104140000D03*
X143637000Y-101600000D03*
X143637000Y-99060000D03*
X143637000Y-96520000D03*
X143637000Y-93980000D03*
X143637000Y-91440000D03*
X143637000Y-88900000D03*
X143637000Y-86360000D03*
X143637000Y-83820000D03*
X143637000Y-81280000D03*
X143637000Y-78740000D03*
X123317000Y-83820000D03*
X123317000Y-86360000D03*
X123317000Y-88900000D03*
X123317000Y-91440000D03*
X123317000Y-93980000D03*
X123317000Y-96520000D03*
X123317000Y-99060000D03*
X123317000Y-101600000D03*
X123317000Y-104140000D03*
X123317000Y-106680000D03*
X123317000Y-109220000D03*
X123317000Y-111760000D03*
X138557000Y-111760000D03*
X138557000Y-109220000D03*
X138557000Y-106680000D03*
X138557000Y-104140000D03*
X138557000Y-101600000D03*
X138557000Y-99060000D03*
X138557000Y-96520000D03*
X138557000Y-93980000D03*
X138557000Y-91440000D03*
X138557000Y-88900000D03*
X138557000Y-86360000D03*
X138557000Y-83820000D03*
D14*
X113030000Y-91440000D03*
X113030000Y-93980000D03*
X113030000Y-96520000D03*
X158750000Y-91440000D03*
X158750000Y-93980000D03*
X158750000Y-96520000D03*
X115570000Y-91440000D03*
X115570000Y-93980000D03*
X115570000Y-96520000D03*
X118110000Y-91440000D03*
X118110000Y-93980000D03*
X118110000Y-96520000D03*
X120650000Y-91440000D03*
X120650000Y-93980000D03*
X120650000Y-96520000D03*
X161290000Y-91440000D03*
X161290000Y-93980000D03*
X161290000Y-96520000D03*
X163830000Y-91440000D03*
X163830000Y-93980000D03*
X163830000Y-96520000D03*
D15*
X139700000Y-116205000D03*
D16*
X137160000Y-116205000D03*
D15*
X147320000Y-116205000D03*
D16*
X144780000Y-116205000D03*
D15*
X154940000Y-116205000D03*
D16*
X152400000Y-116205000D03*
D15*
X153797000Y-79375000D03*
D16*
X151257000Y-79375000D03*
D15*
X153797000Y-81915000D03*
D16*
X151257000Y-81915000D03*
D13*
X147447000Y-88900000D03*
X147447000Y-91440000D03*
X147447000Y-93980000D03*
X147447000Y-96520000D03*
X147447000Y-99060000D03*
X147447000Y-101600000D03*
X147447000Y-104140000D03*
X147447000Y-106680000D03*
X147447000Y-109220000D03*
X147447000Y-111760000D03*
X155067000Y-111760000D03*
X155067000Y-109220000D03*
X155067000Y-106680000D03*
X155067000Y-104140000D03*
X155067000Y-101600000D03*
X155067000Y-99060000D03*
X155067000Y-96520000D03*
X155067000Y-93980000D03*
X155067000Y-91440000D03*
X155067000Y-88900000D03*
D17*
X128905000Y-116205000D03*
D18*
X126365000Y-116205000D03*
X123825000Y-116205000D03*
D15*
X132080000Y-116205000D03*
M02*
