G04 #@! TF.FileFunction,Profile,NP*
%FSLAX46Y46*%
G04 Gerber Fmt 4.6, Leading zero omitted, Abs format (unit mm)*
G04 Created by KiCad (PCBNEW 4.0.2-stable) date 22.08.2016 10:02:21*
%MOMM*%
G01*
G04 APERTURE LIST*
%ADD10C,0.100000*%
%ADD11C,0.150000*%
G04 APERTURE END LIST*
D10*
D11*
X156972000Y-112522000D02*
X156972000Y-104140000D01*
X165608000Y-97155000D02*
X165608000Y-101600000D01*
X156972000Y-118110000D02*
X156972000Y-116840000D01*
X122047000Y-118110000D02*
X122047000Y-116840000D01*
X156972000Y-78740000D02*
X156972000Y-77470000D01*
X122047000Y-78740000D02*
X122047000Y-77470000D01*
X156972000Y-116840000D02*
X156972000Y-112522000D01*
X123317000Y-76200000D02*
X155702000Y-76200000D01*
X122047000Y-88265000D02*
X122047000Y-78740000D01*
X123317000Y-76200000D02*
G75*
G03X122047000Y-77470000I0J-1270000D01*
G01*
X156972000Y-88265000D02*
X156972000Y-78740000D01*
X156972000Y-77470000D02*
G75*
G03X155702000Y-76200000I-1270000J0D01*
G01*
X155702000Y-119380000D02*
X123317000Y-119380000D01*
X155702000Y-119380000D02*
G75*
G03X156972000Y-118110000I0J1270000D01*
G01*
X122047000Y-116840000D02*
X122047000Y-99695000D01*
X122047000Y-118110000D02*
G75*
G03X123317000Y-119380000I1270000J0D01*
G01*
X116332000Y-98425000D02*
X120777000Y-98425000D01*
X122047000Y-99695000D02*
G75*
G03X120777000Y-98425000I-1270000J0D01*
G01*
X120777000Y-89535000D02*
X112522000Y-89535000D01*
X120777000Y-89535000D02*
G75*
G03X122047000Y-88265000I0J1270000D01*
G01*
X158242000Y-102870000D02*
X160782000Y-102870000D01*
X158242000Y-102870000D02*
G75*
G03X156972000Y-104140000I0J-1270000D01*
G01*
X158242000Y-89535000D02*
X160782000Y-89535000D01*
X156972000Y-88265000D02*
G75*
G03X158242000Y-89535000I1270000J0D01*
G01*
X164338000Y-89535000D02*
X160782000Y-89535000D01*
X165608000Y-97155000D02*
X165608000Y-90805000D01*
X165608000Y-90805000D02*
G75*
G03X164338000Y-89535000I-1270000J0D01*
G01*
X164338000Y-102870000D02*
X160782000Y-102870000D01*
X164338000Y-102870000D02*
G75*
G03X165608000Y-101600000I0J1270000D01*
G01*
X112522000Y-98425000D02*
X116332000Y-98425000D01*
X111252000Y-97155000D02*
X111252000Y-90805000D01*
X111252000Y-97155000D02*
G75*
G03X112522000Y-98425000I1270000J0D01*
G01*
X112522000Y-89535000D02*
G75*
G03X111252000Y-90805000I0J-1270000D01*
G01*
M02*
