M48
;DRILL file {KiCad 4.0.0-rc2-stable} date 20.01.2016 09:52:10
;FORMAT={-:-/ absolute / inch / decimal}
FMAT,2
INCH,TZ
T1C0.015
T2C0.031
T3C0.032
T4C0.040
%
G90
G05
M72
T1
X5.785Y-3.7
T2
X4.905Y-3.35
X4.905Y-3.45
X4.905Y-3.55
X4.905Y-3.65
X4.905Y-3.75
X4.905Y-3.85
X4.905Y-3.95
X4.905Y-4.05
X4.905Y-4.15
X4.905Y-4.25
X4.905Y-4.35
X4.905Y-4.45
X5.005Y-3.15
X5.005Y-3.25
X5.005Y-3.35
X5.005Y-3.45
X5.005Y-3.55
X5.005Y-3.65
X5.005Y-3.75
X5.005Y-3.85
X5.005Y-3.95
X5.005Y-4.05
X5.005Y-4.15
X5.005Y-4.25
X5.005Y-4.35
X5.005Y-4.45
X5.105Y-3.15
X5.105Y-3.25
X5.105Y-3.35
X5.105Y-3.45
X5.105Y-3.55
X5.105Y-3.65
X5.105Y-3.75
X5.105Y-3.85
X5.105Y-3.95
X5.105Y-4.05
X5.105Y-4.15
X5.105Y-4.25
X5.105Y-4.35
X5.105Y-4.45
X5.505Y-3.35
X5.505Y-3.45
X5.505Y-3.55
X5.505Y-3.65
X5.505Y-3.75
X5.505Y-3.85
X5.505Y-3.95
X5.505Y-4.05
X5.505Y-4.15
X5.505Y-4.25
X5.505Y-4.35
X5.505Y-4.45
X5.605Y-3.15
X5.605Y-3.25
X5.605Y-3.35
X5.605Y-3.45
X5.605Y-3.55
X5.605Y-3.65
X5.605Y-3.75
X5.605Y-3.85
X5.605Y-3.95
X5.605Y-4.05
X5.605Y-4.15
X5.605Y-4.25
X5.605Y-4.35
X5.605Y-4.45
X5.705Y-3.15
X5.705Y-3.25
X5.705Y-3.35
X5.705Y-3.45
X5.705Y-3.55
X5.705Y-3.65
X5.705Y-3.75
X5.705Y-3.85
X5.705Y-3.95
X5.705Y-4.05
X5.705Y-4.15
X5.705Y-4.25
X5.705Y-4.35
X5.705Y-4.45
X5.805Y-3.15
X5.855Y-3.55
X5.855Y-3.65
X5.855Y-3.75
X5.855Y-3.85
X5.855Y-3.95
X5.855Y-4.05
X5.855Y-4.15
X5.855Y-4.25
X5.855Y-4.35
X5.855Y-4.45
X6.155Y-3.4
X6.155Y-3.55
X6.155Y-3.65
X6.155Y-3.75
X6.155Y-3.85
X6.155Y-3.95
X6.155Y-4.05
X6.155Y-4.15
X6.155Y-4.25
X6.155Y-4.35
X6.155Y-4.45
T3
X5.805Y-3.2484
X6.0566Y-3.4
T4
X4.705Y-3.65
X4.705Y-3.75
X4.705Y-3.85
X4.805Y-3.65
X4.805Y-3.75
X4.805Y-3.85
X4.955Y-4.625
X5.055Y-4.625
X5.155Y-4.625
X5.405Y-4.625
X5.505Y-4.625
X5.705Y-4.625
X5.805Y-4.625
X6.005Y-3.175
X6.005Y-3.275
X6.005Y-4.625
X6.105Y-3.175
X6.105Y-3.275
X6.105Y-4.625
X6.305Y-3.65
X6.305Y-3.75
X6.305Y-3.85
T0
M30
