M48
;DRILL file {KiCad 4.0.0-rc2-stable} date 31.05.2016 08:08:38
;FORMAT={-:-/ absolute / inch / decimal}
FMAT,2
INCH,TZ
T1C0.015
T2C0.031
T3C0.032
T4C0.040
%
G90
G05
M72
T1
X5.735Y-3.65
X5.97Y-3.435
T2
X4.855Y-3.3
X4.855Y-3.4
X4.855Y-3.5
X4.855Y-3.6
X4.855Y-3.7
X4.855Y-3.8
X4.855Y-3.9
X4.855Y-4.
X4.855Y-4.1
X4.855Y-4.2
X4.855Y-4.3
X4.855Y-4.4
X4.955Y-3.1
X4.955Y-3.2
X4.955Y-3.3
X4.955Y-3.4
X4.955Y-3.5
X4.955Y-3.6
X4.955Y-3.7
X4.955Y-3.8
X4.955Y-3.9
X4.955Y-4.
X4.955Y-4.1
X4.955Y-4.2
X4.955Y-4.3
X4.955Y-4.4
X5.055Y-3.1
X5.055Y-3.2
X5.055Y-3.3
X5.055Y-3.4
X5.055Y-3.5
X5.055Y-3.6
X5.055Y-3.7
X5.055Y-3.8
X5.055Y-3.9
X5.055Y-4.
X5.055Y-4.1
X5.055Y-4.2
X5.055Y-4.3
X5.055Y-4.4
X5.455Y-3.3
X5.455Y-3.4
X5.455Y-3.5
X5.455Y-3.6
X5.455Y-3.7
X5.455Y-3.8
X5.455Y-3.9
X5.455Y-4.
X5.455Y-4.1
X5.455Y-4.2
X5.455Y-4.3
X5.455Y-4.4
X5.555Y-3.1
X5.555Y-3.2
X5.555Y-3.3
X5.555Y-3.4
X5.555Y-3.5
X5.555Y-3.6
X5.555Y-3.7
X5.555Y-3.8
X5.555Y-3.9
X5.555Y-4.
X5.555Y-4.1
X5.555Y-4.2
X5.555Y-4.3
X5.555Y-4.4
X5.655Y-3.1
X5.655Y-3.2
X5.655Y-3.3
X5.655Y-3.4
X5.655Y-3.5
X5.655Y-3.6
X5.655Y-3.7
X5.655Y-3.8
X5.655Y-3.9
X5.655Y-4.
X5.655Y-4.1
X5.655Y-4.2
X5.655Y-4.3
X5.655Y-4.4
X5.755Y-3.1
X5.805Y-3.5
X5.805Y-3.6
X5.805Y-3.7
X5.805Y-3.8
X5.805Y-3.9
X5.805Y-4.
X5.805Y-4.1
X5.805Y-4.2
X5.805Y-4.3
X5.805Y-4.4
X6.105Y-3.35
X6.105Y-3.5
X6.105Y-3.6
X6.105Y-3.7
X6.105Y-3.8
X6.105Y-3.9
X6.105Y-4.
X6.105Y-4.1
X6.105Y-4.2
X6.105Y-4.3
X6.105Y-4.4
T3
X5.755Y-3.1984
X6.0066Y-3.35
T4
X4.45Y-3.6
X4.45Y-3.7
X4.45Y-3.8
X4.55Y-3.6
X4.55Y-3.7
X4.55Y-3.8
X4.65Y-3.6
X4.65Y-3.7
X4.65Y-3.8
X4.75Y-3.6
X4.75Y-3.7
X4.75Y-3.8
X4.875Y-4.575
X4.975Y-4.575
X5.075Y-4.575
X5.2Y-4.575
X5.4Y-4.575
X5.5Y-4.575
X5.7Y-4.575
X5.8Y-4.575
X5.955Y-3.125
X5.955Y-3.225
X6.Y-4.575
X6.055Y-3.125
X6.055Y-3.225
X6.1Y-4.575
X6.25Y-3.6
X6.25Y-3.7
X6.25Y-3.8
X6.35Y-3.6
X6.35Y-3.7
X6.35Y-3.8
X6.45Y-3.6
X6.45Y-3.7
X6.45Y-3.8
T0
M30
