G04 #@! TF.FileFunction,Legend,Top*
%FSLAX46Y46*%
G04 Gerber Fmt 4.6, Leading zero omitted, Abs format (unit mm)*
G04 Created by KiCad (PCBNEW 4.0.0-rc2-stable) date 31.05.2016 08:08:33*
%MOMM*%
G01*
G04 APERTURE LIST*
%ADD10C,0.100000*%
%ADD11C,0.150000*%
%ADD12C,0.200000*%
%ADD13R,1.700000X1.700000*%
%ADD14C,1.700000*%
%ADD15O,2.000000X2.000000*%
%ADD16C,2.127200*%
%ADD17R,2.432000X2.432000*%
%ADD18O,2.432000X2.432000*%
%ADD19R,2.127200X2.432000*%
%ADD20O,2.127200X2.432000*%
G04 APERTURE END LIST*
D10*
D11*
X131508572Y-113925000D02*
X131437143Y-113889286D01*
X131330000Y-113889286D01*
X131222857Y-113925000D01*
X131151429Y-113996429D01*
X131115714Y-114067857D01*
X131080000Y-114210714D01*
X131080000Y-114317857D01*
X131115714Y-114460714D01*
X131151429Y-114532143D01*
X131222857Y-114603571D01*
X131330000Y-114639286D01*
X131401429Y-114639286D01*
X131508572Y-114603571D01*
X131544286Y-114567857D01*
X131544286Y-114317857D01*
X131401429Y-114317857D01*
X131865714Y-114639286D02*
X131865714Y-113889286D01*
X132294286Y-114639286D01*
X132294286Y-113889286D01*
X132651428Y-114639286D02*
X132651428Y-113889286D01*
X132830000Y-113889286D01*
X132937143Y-113925000D01*
X133008571Y-113996429D01*
X133044286Y-114067857D01*
X133080000Y-114210714D01*
X133080000Y-114317857D01*
X133044286Y-114460714D01*
X133008571Y-114532143D01*
X132937143Y-114603571D01*
X132830000Y-114639286D01*
X132651428Y-114639286D01*
X133027381Y-102314644D02*
X132360714Y-102231310D01*
X132551190Y-102255120D02*
X132455952Y-102195596D01*
X132408333Y-102142025D01*
X132360714Y-102040834D01*
X132360714Y-101945595D01*
X132979762Y-101308690D02*
X133027381Y-101409881D01*
X133027381Y-101600358D01*
X132979762Y-101689643D01*
X132884524Y-101725357D01*
X132503571Y-101677738D01*
X132408333Y-101618215D01*
X132360714Y-101517024D01*
X132360714Y-101326547D01*
X132408333Y-101237262D01*
X132503571Y-101201547D01*
X132598810Y-101213452D01*
X132694048Y-101701548D01*
X132360714Y-100755119D02*
X133360714Y-100880119D01*
X132408333Y-100761072D02*
X132360714Y-100659881D01*
X132360714Y-100469404D01*
X132408333Y-100380119D01*
X132455952Y-100338452D01*
X132551190Y-100302738D01*
X132836905Y-100338452D01*
X132932143Y-100397976D01*
X132979762Y-100451547D01*
X133027381Y-100552738D01*
X133027381Y-100743215D01*
X132979762Y-100832500D01*
X133027381Y-99933691D02*
X132360714Y-99850357D01*
X132551190Y-99874167D02*
X132455952Y-99814643D01*
X132408333Y-99761072D01*
X132360714Y-99659881D01*
X132360714Y-99564642D01*
X133027381Y-99171786D02*
X132979762Y-99261071D01*
X132932143Y-99302738D01*
X132836905Y-99338452D01*
X132551190Y-99302738D01*
X132455952Y-99243214D01*
X132408333Y-99189643D01*
X132360714Y-99088452D01*
X132360714Y-98945594D01*
X132408333Y-98856309D01*
X132455952Y-98814642D01*
X132551190Y-98778928D01*
X132836905Y-98814642D01*
X132932143Y-98874166D01*
X132979762Y-98927737D01*
X133027381Y-99028928D01*
X133027381Y-99171786D01*
X133027381Y-98409881D02*
X132360714Y-98326547D01*
X132455952Y-98338452D02*
X132408333Y-98284881D01*
X132360714Y-98183690D01*
X132360714Y-98040832D01*
X132408333Y-97951547D01*
X132503571Y-97915832D01*
X133027381Y-97981309D01*
X132503571Y-97915832D02*
X132408333Y-97856309D01*
X132360714Y-97755118D01*
X132360714Y-97612261D01*
X132408333Y-97522976D01*
X132503571Y-97487261D01*
X133027381Y-97552738D01*
X132027381Y-96522976D02*
X132027381Y-96713453D01*
X132075000Y-96814643D01*
X132122619Y-96868214D01*
X132265476Y-96981309D01*
X132455952Y-97052738D01*
X132836905Y-97100357D01*
X132932143Y-97064643D01*
X132979762Y-97022976D01*
X133027381Y-96933691D01*
X133027381Y-96743214D01*
X132979762Y-96642023D01*
X132932143Y-96588452D01*
X132836905Y-96528928D01*
X132598810Y-96499166D01*
X132503571Y-96534880D01*
X132455952Y-96576547D01*
X132408333Y-96665833D01*
X132408333Y-96856310D01*
X132455952Y-96957500D01*
X132503571Y-97011071D01*
X132598810Y-97070595D01*
X132360714Y-95612261D02*
X133027381Y-95695595D01*
X131979762Y-95802738D02*
X132694048Y-96130119D01*
X132694048Y-95511071D01*
X133027381Y-93838452D02*
X132551190Y-94112262D01*
X133027381Y-94409881D02*
X132027381Y-94284881D01*
X132027381Y-93903928D01*
X132075000Y-93814642D01*
X132122619Y-93772975D01*
X132217857Y-93737261D01*
X132360714Y-93755118D01*
X132455952Y-93814642D01*
X132503571Y-93868213D01*
X132551190Y-93969404D01*
X132551190Y-94350357D01*
X132979762Y-93022975D02*
X133027381Y-93124166D01*
X133027381Y-93314643D01*
X132979762Y-93403928D01*
X132884524Y-93439642D01*
X132503571Y-93392023D01*
X132408333Y-93332500D01*
X132360714Y-93231309D01*
X132360714Y-93040832D01*
X132408333Y-92951547D01*
X132503571Y-92915832D01*
X132598810Y-92927737D01*
X132694048Y-93415833D01*
X132360714Y-92564642D02*
X133027381Y-92409881D01*
X132360714Y-92088451D01*
X132932143Y-91778928D02*
X132979762Y-91737261D01*
X133027381Y-91790833D01*
X132979762Y-91832499D01*
X132932143Y-91778928D01*
X133027381Y-91790833D01*
X132122619Y-91249166D02*
X132075000Y-91195595D01*
X132027381Y-91094405D01*
X132027381Y-90856309D01*
X132075000Y-90767023D01*
X132122619Y-90725356D01*
X132217857Y-90689642D01*
X132313095Y-90701547D01*
X132455952Y-90767023D01*
X133027381Y-91409881D01*
X133027381Y-90790833D01*
X133910714Y-104802738D02*
X134577381Y-104695596D01*
X134101190Y-104445595D01*
X134577381Y-104314643D01*
X133910714Y-104040833D01*
X133910714Y-103755119D02*
X134577381Y-103647977D01*
X134101190Y-103397976D01*
X134577381Y-103267024D01*
X133910714Y-102993214D01*
X133910714Y-102707500D02*
X134577381Y-102600358D01*
X134101190Y-102350357D01*
X134577381Y-102219405D01*
X133910714Y-101945595D01*
X134482143Y-101636072D02*
X134529762Y-101594405D01*
X134577381Y-101647977D01*
X134529762Y-101689643D01*
X134482143Y-101636072D01*
X134577381Y-101647977D01*
X134577381Y-101171787D02*
X133577381Y-101046787D01*
X134577381Y-100743215D02*
X134053571Y-100677738D01*
X133958333Y-100713453D01*
X133910714Y-100802738D01*
X133910714Y-100945596D01*
X133958333Y-101046787D01*
X134005952Y-101100358D01*
X134529762Y-99880119D02*
X134577381Y-99981310D01*
X134577381Y-100171787D01*
X134529762Y-100261072D01*
X134434524Y-100296786D01*
X134053571Y-100249167D01*
X133958333Y-100189644D01*
X133910714Y-100088453D01*
X133910714Y-99897976D01*
X133958333Y-99808691D01*
X134053571Y-99772976D01*
X134148810Y-99784881D01*
X134244048Y-100272977D01*
X133910714Y-99326548D02*
X134577381Y-99409882D01*
X134005952Y-99338453D02*
X133958333Y-99284882D01*
X133910714Y-99183691D01*
X133910714Y-99040833D01*
X133958333Y-98951548D01*
X134053571Y-98915833D01*
X134577381Y-98981310D01*
X133910714Y-98421786D02*
X134577381Y-98505120D01*
X134005952Y-98433691D02*
X133958333Y-98380120D01*
X133910714Y-98278929D01*
X133910714Y-98136071D01*
X133958333Y-98046786D01*
X134053571Y-98011071D01*
X134577381Y-98076548D01*
X134577381Y-97600358D02*
X133910714Y-97517024D01*
X133577381Y-97475358D02*
X133625000Y-97528929D01*
X133672619Y-97487262D01*
X133625000Y-97433691D01*
X133577381Y-97475358D01*
X133672619Y-97487262D01*
X133910714Y-97040834D02*
X134577381Y-97124168D01*
X134005952Y-97052739D02*
X133958333Y-96999168D01*
X133910714Y-96897977D01*
X133910714Y-96755119D01*
X133958333Y-96665834D01*
X134053571Y-96630119D01*
X134577381Y-96695596D01*
X133910714Y-95707500D02*
X134720238Y-95808691D01*
X134815476Y-95868215D01*
X134863095Y-95921786D01*
X134910714Y-96022977D01*
X134910714Y-96165834D01*
X134863095Y-96255120D01*
X134529762Y-95784881D02*
X134577381Y-95886072D01*
X134577381Y-96076549D01*
X134529762Y-96165834D01*
X134482143Y-96207501D01*
X134386905Y-96243215D01*
X134101190Y-96207501D01*
X134005952Y-96147977D01*
X133958333Y-96094406D01*
X133910714Y-95993215D01*
X133910714Y-95802738D01*
X133958333Y-95713453D01*
X134196429Y-95267025D02*
X134196429Y-94505120D01*
X134577381Y-94076549D02*
X133577381Y-93951549D01*
X133958333Y-93999168D02*
X133910714Y-93897977D01*
X133910714Y-93707500D01*
X133958333Y-93618215D01*
X134005952Y-93576548D01*
X134101190Y-93540834D01*
X134386905Y-93576548D01*
X134482143Y-93636072D01*
X134529762Y-93689643D01*
X134577381Y-93790834D01*
X134577381Y-93981311D01*
X134529762Y-94070596D01*
X134529762Y-92784881D02*
X134577381Y-92886072D01*
X134577381Y-93076549D01*
X134529762Y-93165834D01*
X134434524Y-93201548D01*
X134053571Y-93153929D01*
X133958333Y-93094406D01*
X133910714Y-92993215D01*
X133910714Y-92802738D01*
X133958333Y-92713453D01*
X134053571Y-92677738D01*
X134148810Y-92689643D01*
X134244048Y-93177739D01*
X134577381Y-92314644D02*
X133577381Y-92189644D01*
X134196429Y-92171787D02*
X134577381Y-91933691D01*
X133910714Y-91850357D02*
X134291667Y-92278929D01*
X134529762Y-91118214D02*
X134577381Y-91219405D01*
X134577381Y-91409882D01*
X134529762Y-91499167D01*
X134434524Y-91534881D01*
X134053571Y-91487262D01*
X133958333Y-91427739D01*
X133910714Y-91326548D01*
X133910714Y-91136071D01*
X133958333Y-91046786D01*
X134053571Y-91011071D01*
X134148810Y-91022976D01*
X134244048Y-91511072D01*
X134577381Y-90505120D02*
X134529762Y-90594405D01*
X134434524Y-90630119D01*
X133577381Y-90522977D01*
X134482143Y-90112262D02*
X134529762Y-90070595D01*
X134577381Y-90124167D01*
X134529762Y-90165833D01*
X134482143Y-90112262D01*
X134577381Y-90124167D01*
X134577381Y-89219405D02*
X133577381Y-89094405D01*
X134529762Y-89213452D02*
X134577381Y-89314643D01*
X134577381Y-89505120D01*
X134529762Y-89594405D01*
X134482143Y-89636072D01*
X134386905Y-89671786D01*
X134101190Y-89636072D01*
X134005952Y-89576548D01*
X133958333Y-89522977D01*
X133910714Y-89421786D01*
X133910714Y-89231309D01*
X133958333Y-89142024D01*
X134529762Y-88356309D02*
X134577381Y-88457500D01*
X134577381Y-88647977D01*
X134529762Y-88737262D01*
X134434524Y-88772976D01*
X134053571Y-88725357D01*
X133958333Y-88665834D01*
X133910714Y-88564643D01*
X133910714Y-88374166D01*
X133958333Y-88284881D01*
X134053571Y-88249166D01*
X134148810Y-88261071D01*
X134244048Y-88749167D01*
X156096857Y-82073571D02*
X156132571Y-82109285D01*
X156168286Y-82216428D01*
X156168286Y-82287857D01*
X156132571Y-82395000D01*
X156061143Y-82466428D01*
X155989714Y-82502143D01*
X155846857Y-82537857D01*
X155739714Y-82537857D01*
X155596857Y-82502143D01*
X155525429Y-82466428D01*
X155454000Y-82395000D01*
X155418286Y-82287857D01*
X155418286Y-82216428D01*
X155454000Y-82109285D01*
X155489714Y-82073571D01*
X155418286Y-81609285D02*
X155418286Y-81466428D01*
X155454000Y-81395000D01*
X155525429Y-81323571D01*
X155668286Y-81287857D01*
X155918286Y-81287857D01*
X156061143Y-81323571D01*
X156132571Y-81395000D01*
X156168286Y-81466428D01*
X156168286Y-81609285D01*
X156132571Y-81680714D01*
X156061143Y-81752143D01*
X155918286Y-81787857D01*
X155668286Y-81787857D01*
X155525429Y-81752143D01*
X155454000Y-81680714D01*
X155418286Y-81609285D01*
X156168286Y-80966429D02*
X155418286Y-80966429D01*
X156168286Y-80537857D01*
X155418286Y-80537857D01*
X155775429Y-79930715D02*
X155775429Y-80180715D01*
X156168286Y-80180715D02*
X155418286Y-80180715D01*
X155418286Y-79823572D01*
X156168286Y-79537858D02*
X155418286Y-79537858D01*
X155454000Y-78787857D02*
X155418286Y-78859286D01*
X155418286Y-78966429D01*
X155454000Y-79073572D01*
X155525429Y-79145000D01*
X155596857Y-79180715D01*
X155739714Y-79216429D01*
X155846857Y-79216429D01*
X155989714Y-79180715D01*
X156061143Y-79145000D01*
X156132571Y-79073572D01*
X156168286Y-78966429D01*
X156168286Y-78895000D01*
X156132571Y-78787857D01*
X156096857Y-78752143D01*
X155846857Y-78752143D01*
X155846857Y-78895000D01*
X124936429Y-114567857D02*
X124900715Y-114603571D01*
X124793572Y-114639286D01*
X124722143Y-114639286D01*
X124615000Y-114603571D01*
X124543572Y-114532143D01*
X124507857Y-114460714D01*
X124472143Y-114317857D01*
X124472143Y-114210714D01*
X124507857Y-114067857D01*
X124543572Y-113996429D01*
X124615000Y-113925000D01*
X124722143Y-113889286D01*
X124793572Y-113889286D01*
X124900715Y-113925000D01*
X124936429Y-113960714D01*
X125400715Y-113889286D02*
X125543572Y-113889286D01*
X125615000Y-113925000D01*
X125686429Y-113996429D01*
X125722143Y-114139286D01*
X125722143Y-114389286D01*
X125686429Y-114532143D01*
X125615000Y-114603571D01*
X125543572Y-114639286D01*
X125400715Y-114639286D01*
X125329286Y-114603571D01*
X125257857Y-114532143D01*
X125222143Y-114389286D01*
X125222143Y-114139286D01*
X125257857Y-113996429D01*
X125329286Y-113925000D01*
X125400715Y-113889286D01*
X126043571Y-114639286D02*
X126043571Y-113889286D01*
X126472143Y-114639286D01*
X126472143Y-113889286D01*
X127079285Y-114246429D02*
X126829285Y-114246429D01*
X126829285Y-114639286D02*
X126829285Y-113889286D01*
X127186428Y-113889286D01*
X127472142Y-114639286D02*
X127472142Y-113889286D01*
X128222143Y-113925000D02*
X128150714Y-113889286D01*
X128043571Y-113889286D01*
X127936428Y-113925000D01*
X127865000Y-113996429D01*
X127829285Y-114067857D01*
X127793571Y-114210714D01*
X127793571Y-114317857D01*
X127829285Y-114460714D01*
X127865000Y-114532143D01*
X127936428Y-114603571D01*
X128043571Y-114639286D01*
X128115000Y-114639286D01*
X128222143Y-114603571D01*
X128257857Y-114567857D01*
X128257857Y-114317857D01*
X128115000Y-114317857D01*
X151741429Y-114639286D02*
X151741429Y-113889286D01*
X152170001Y-114639286D02*
X151848572Y-114210714D01*
X152170001Y-113889286D02*
X151741429Y-114317857D01*
X152491429Y-114246429D02*
X152741429Y-114246429D01*
X152848572Y-114639286D02*
X152491429Y-114639286D01*
X152491429Y-113889286D01*
X152848572Y-113889286D01*
X153598572Y-114639286D02*
X153348572Y-114282143D01*
X153170000Y-114639286D02*
X153170000Y-113889286D01*
X153455715Y-113889286D01*
X153527143Y-113925000D01*
X153562858Y-113960714D01*
X153598572Y-114032143D01*
X153598572Y-114139286D01*
X153562858Y-114210714D01*
X153527143Y-114246429D01*
X153455715Y-114282143D01*
X153170000Y-114282143D01*
X153920000Y-114639286D02*
X153920000Y-113889286D01*
X154348572Y-114639286D01*
X154348572Y-113889286D01*
X154670000Y-114425000D02*
X155027143Y-114425000D01*
X154598572Y-114639286D02*
X154848572Y-113889286D01*
X155098572Y-114639286D01*
X155705714Y-114639286D02*
X155348571Y-114639286D01*
X155348571Y-113889286D01*
X144210715Y-114567857D02*
X144175001Y-114603571D01*
X144067858Y-114639286D01*
X143996429Y-114639286D01*
X143889286Y-114603571D01*
X143817858Y-114532143D01*
X143782143Y-114460714D01*
X143746429Y-114317857D01*
X143746429Y-114210714D01*
X143782143Y-114067857D01*
X143817858Y-113996429D01*
X143889286Y-113925000D01*
X143996429Y-113889286D01*
X144067858Y-113889286D01*
X144175001Y-113925000D01*
X144210715Y-113960714D01*
X144532143Y-114639286D02*
X144532143Y-113889286D01*
X144532143Y-114246429D02*
X144960715Y-114246429D01*
X144960715Y-114639286D02*
X144960715Y-113889286D01*
X145282143Y-114425000D02*
X145639286Y-114425000D01*
X145210715Y-114639286D02*
X145460715Y-113889286D01*
X145710715Y-114639286D01*
X146389286Y-114639286D02*
X146139286Y-114282143D01*
X145960714Y-114639286D02*
X145960714Y-113889286D01*
X146246429Y-113889286D01*
X146317857Y-113925000D01*
X146353572Y-113960714D01*
X146389286Y-114032143D01*
X146389286Y-114139286D01*
X146353572Y-114210714D01*
X146317857Y-114246429D01*
X146246429Y-114282143D01*
X145960714Y-114282143D01*
X146675000Y-114603571D02*
X146782143Y-114639286D01*
X146960714Y-114639286D01*
X147032143Y-114603571D01*
X147067857Y-114567857D01*
X147103572Y-114496429D01*
X147103572Y-114425000D01*
X147067857Y-114353571D01*
X147032143Y-114317857D01*
X146960714Y-114282143D01*
X146817857Y-114246429D01*
X146746429Y-114210714D01*
X146710714Y-114175000D01*
X146675000Y-114103571D01*
X146675000Y-114032143D01*
X146710714Y-113960714D01*
X146746429Y-113925000D01*
X146817857Y-113889286D01*
X146996429Y-113889286D01*
X147103572Y-113925000D01*
X147425000Y-114246429D02*
X147675000Y-114246429D01*
X147782143Y-114639286D02*
X147425000Y-114639286D01*
X147425000Y-113889286D01*
X147782143Y-113889286D01*
X147996429Y-113889286D02*
X148425000Y-113889286D01*
X148210714Y-114639286D02*
X148210714Y-113889286D01*
D12*
X144907000Y-112776000D02*
X143637000Y-112776000D01*
X127127000Y-112776000D02*
X128397000Y-112776000D01*
X144907000Y-77724000D02*
X143637000Y-77724000D01*
X127127000Y-77724000D02*
X128397000Y-77724000D01*
X144907000Y-112776000D02*
X144907000Y-77724000D01*
X127127000Y-112776000D02*
X127127000Y-77724000D01*
D11*
X137251428Y-114246429D02*
X137358571Y-114282143D01*
X137394286Y-114317857D01*
X137430000Y-114389286D01*
X137430000Y-114496429D01*
X137394286Y-114567857D01*
X137358571Y-114603571D01*
X137287143Y-114639286D01*
X137001428Y-114639286D01*
X137001428Y-113889286D01*
X137251428Y-113889286D01*
X137322857Y-113925000D01*
X137358571Y-113960714D01*
X137394286Y-114032143D01*
X137394286Y-114103571D01*
X137358571Y-114175000D01*
X137322857Y-114210714D01*
X137251428Y-114246429D01*
X137001428Y-114246429D01*
X137715714Y-114425000D02*
X138072857Y-114425000D01*
X137644286Y-114639286D02*
X137894286Y-113889286D01*
X138144286Y-114639286D01*
X138358571Y-114603571D02*
X138465714Y-114639286D01*
X138644285Y-114639286D01*
X138715714Y-114603571D01*
X138751428Y-114567857D01*
X138787143Y-114496429D01*
X138787143Y-114425000D01*
X138751428Y-114353571D01*
X138715714Y-114317857D01*
X138644285Y-114282143D01*
X138501428Y-114246429D01*
X138430000Y-114210714D01*
X138394285Y-114175000D01*
X138358571Y-114103571D01*
X138358571Y-114032143D01*
X138394285Y-113960714D01*
X138430000Y-113925000D01*
X138501428Y-113889286D01*
X138680000Y-113889286D01*
X138787143Y-113925000D01*
X139108571Y-114639286D02*
X139108571Y-113889286D01*
X139894286Y-114567857D02*
X139858572Y-114603571D01*
X139751429Y-114639286D01*
X139680000Y-114639286D01*
X139572857Y-114603571D01*
X139501429Y-114532143D01*
X139465714Y-114460714D01*
X139430000Y-114317857D01*
X139430000Y-114210714D01*
X139465714Y-114067857D01*
X139501429Y-113996429D01*
X139572857Y-113925000D01*
X139680000Y-113889286D01*
X139751429Y-113889286D01*
X139858572Y-113925000D01*
X139894286Y-113960714D01*
X147427000Y-78490000D02*
X147427000Y-81490000D01*
X144927000Y-81490000D02*
X144927000Y-78490000D01*
X155317000Y-86340000D02*
X152317000Y-86340000D01*
X152317000Y-83840000D02*
X155317000Y-83840000D01*
X138430000Y-114935000D02*
X140970000Y-114935000D01*
X140970000Y-114935000D02*
X140970000Y-117475000D01*
X140970000Y-117475000D02*
X138430000Y-117475000D01*
X138430000Y-117475000D02*
X135890000Y-117475000D01*
X138430000Y-114935000D02*
X135890000Y-114935000D01*
X135890000Y-114935000D02*
X135890000Y-117475000D01*
X146050000Y-114935000D02*
X148590000Y-114935000D01*
X148590000Y-114935000D02*
X148590000Y-117475000D01*
X148590000Y-117475000D02*
X146050000Y-117475000D01*
X146050000Y-117475000D02*
X143510000Y-117475000D01*
X146050000Y-114935000D02*
X143510000Y-114935000D01*
X143510000Y-114935000D02*
X143510000Y-117475000D01*
X153670000Y-114935000D02*
X156210000Y-114935000D01*
X156210000Y-114935000D02*
X156210000Y-117475000D01*
X156210000Y-117475000D02*
X153670000Y-117475000D01*
X153670000Y-117475000D02*
X151130000Y-117475000D01*
X153670000Y-114935000D02*
X151130000Y-114935000D01*
X151130000Y-114935000D02*
X151130000Y-117475000D01*
X152527000Y-78105000D02*
X155067000Y-78105000D01*
X155067000Y-78105000D02*
X155067000Y-80645000D01*
X155067000Y-80645000D02*
X152527000Y-80645000D01*
X152527000Y-80645000D02*
X149987000Y-80645000D01*
X152527000Y-78105000D02*
X149987000Y-78105000D01*
X149987000Y-78105000D02*
X149987000Y-80645000D01*
X152527000Y-80645000D02*
X155067000Y-80645000D01*
X155067000Y-80645000D02*
X155067000Y-83185000D01*
X155067000Y-83185000D02*
X152527000Y-83185000D01*
X152527000Y-83185000D02*
X149987000Y-83185000D01*
X152527000Y-80645000D02*
X149987000Y-80645000D01*
X149987000Y-80645000D02*
X149987000Y-83185000D01*
X155067000Y-87884000D02*
X156083000Y-87884000D01*
X156083000Y-87884000D02*
X156083000Y-112776000D01*
X156083000Y-112776000D02*
X155067000Y-112776000D01*
X146431000Y-112776000D02*
X146431000Y-87884000D01*
X147447000Y-112776000D02*
X146431000Y-112776000D01*
X147447000Y-87884000D02*
X146431000Y-87884000D01*
X127635000Y-114935000D02*
X130175000Y-114935000D01*
X130175000Y-114935000D02*
X130175000Y-117475000D01*
X130175000Y-117475000D02*
X127635000Y-117475000D01*
X127635000Y-114935000D02*
X122555000Y-114935000D01*
X122555000Y-114935000D02*
X122555000Y-117475000D01*
X122555000Y-117475000D02*
X127635000Y-117475000D01*
X130810000Y-117475000D02*
X133350000Y-117475000D01*
X130810000Y-117475000D02*
X130810000Y-114935000D01*
X130810000Y-114935000D02*
X133350000Y-114935000D01*
X133350000Y-114935000D02*
X133350000Y-117475000D01*
X146010334Y-83542143D02*
X145962715Y-83589762D01*
X145819858Y-83637381D01*
X145724620Y-83637381D01*
X145581762Y-83589762D01*
X145486524Y-83494524D01*
X145438905Y-83399286D01*
X145391286Y-83208810D01*
X145391286Y-83065952D01*
X145438905Y-82875476D01*
X145486524Y-82780238D01*
X145581762Y-82685000D01*
X145724620Y-82637381D01*
X145819858Y-82637381D01*
X145962715Y-82685000D01*
X146010334Y-82732619D01*
X146962715Y-83637381D02*
X146391286Y-83637381D01*
X146677000Y-83637381D02*
X146677000Y-82637381D01*
X146581762Y-82780238D01*
X146486524Y-82875476D01*
X146391286Y-82923095D01*
X150328334Y-85447143D02*
X150280715Y-85494762D01*
X150137858Y-85542381D01*
X150042620Y-85542381D01*
X149899762Y-85494762D01*
X149804524Y-85399524D01*
X149756905Y-85304286D01*
X149709286Y-85113810D01*
X149709286Y-84970952D01*
X149756905Y-84780476D01*
X149804524Y-84685238D01*
X149899762Y-84590000D01*
X150042620Y-84542381D01*
X150137858Y-84542381D01*
X150280715Y-84590000D01*
X150328334Y-84637619D01*
X150709286Y-84637619D02*
X150756905Y-84590000D01*
X150852143Y-84542381D01*
X151090239Y-84542381D01*
X151185477Y-84590000D01*
X151233096Y-84637619D01*
X151280715Y-84732857D01*
X151280715Y-84828095D01*
X151233096Y-84970952D01*
X150661667Y-85542381D01*
X151280715Y-85542381D01*
X129889524Y-78287619D02*
X129937143Y-78240000D01*
X130032381Y-78192381D01*
X130270477Y-78192381D01*
X130365715Y-78240000D01*
X130413334Y-78287619D01*
X130460953Y-78382857D01*
X130460953Y-78478095D01*
X130413334Y-78620952D01*
X129841905Y-79192381D01*
X130460953Y-79192381D01*
X130794286Y-78192381D02*
X131460953Y-78192381D01*
X131032381Y-79192381D01*
X132318096Y-78192381D02*
X131841905Y-78192381D01*
X131794286Y-78668571D01*
X131841905Y-78620952D01*
X131937143Y-78573333D01*
X132175239Y-78573333D01*
X132270477Y-78620952D01*
X132318096Y-78668571D01*
X132365715Y-78763810D01*
X132365715Y-79001905D01*
X132318096Y-79097143D01*
X132270477Y-79144762D01*
X132175239Y-79192381D01*
X131937143Y-79192381D01*
X131841905Y-79144762D01*
X131794286Y-79097143D01*
X133318096Y-79192381D02*
X132746667Y-79192381D01*
X133032381Y-79192381D02*
X133032381Y-78192381D01*
X132937143Y-78335238D01*
X132841905Y-78430476D01*
X132746667Y-78478095D01*
X133699048Y-78287619D02*
X133746667Y-78240000D01*
X133841905Y-78192381D01*
X134080001Y-78192381D01*
X134175239Y-78240000D01*
X134222858Y-78287619D01*
X134270477Y-78382857D01*
X134270477Y-78478095D01*
X134222858Y-78620952D01*
X133651429Y-79192381D01*
X134270477Y-79192381D01*
X150757000Y-103393571D02*
X150709381Y-103488809D01*
X150709381Y-103631666D01*
X150757000Y-103774524D01*
X150852238Y-103869762D01*
X150947476Y-103917381D01*
X151137952Y-103965000D01*
X151280810Y-103965000D01*
X151471286Y-103917381D01*
X151566524Y-103869762D01*
X151661762Y-103774524D01*
X151709381Y-103631666D01*
X151709381Y-103536428D01*
X151661762Y-103393571D01*
X151614143Y-103345952D01*
X151280810Y-103345952D01*
X151280810Y-103536428D01*
X151423667Y-102965000D02*
X151423667Y-102488809D01*
X151709381Y-103060238D02*
X150709381Y-102726905D01*
X151709381Y-102393571D01*
X151709381Y-101584047D02*
X151709381Y-102060238D01*
X150709381Y-102060238D01*
X151709381Y-100726904D02*
X151709381Y-101298333D01*
X151709381Y-101012619D02*
X150709381Y-101012619D01*
X150852238Y-101107857D01*
X150947476Y-101203095D01*
X150995095Y-101298333D01*
X150709381Y-99869761D02*
X150709381Y-100060238D01*
X150757000Y-100155476D01*
X150804619Y-100203095D01*
X150947476Y-100298333D01*
X151137952Y-100345952D01*
X151518905Y-100345952D01*
X151614143Y-100298333D01*
X151661762Y-100250714D01*
X151709381Y-100155476D01*
X151709381Y-99964999D01*
X151661762Y-99869761D01*
X151614143Y-99822142D01*
X151518905Y-99774523D01*
X151280810Y-99774523D01*
X151185571Y-99822142D01*
X151137952Y-99869761D01*
X151090333Y-99964999D01*
X151090333Y-100155476D01*
X151137952Y-100250714D01*
X151185571Y-100298333D01*
X151280810Y-100345952D01*
X150709381Y-99488809D02*
X151709381Y-99155476D01*
X150709381Y-98822142D01*
X151137952Y-98345952D02*
X151090333Y-98441190D01*
X151042714Y-98488809D01*
X150947476Y-98536428D01*
X150899857Y-98536428D01*
X150804619Y-98488809D01*
X150757000Y-98441190D01*
X150709381Y-98345952D01*
X150709381Y-98155475D01*
X150757000Y-98060237D01*
X150804619Y-98012618D01*
X150899857Y-97964999D01*
X150947476Y-97964999D01*
X151042714Y-98012618D01*
X151090333Y-98060237D01*
X151137952Y-98155475D01*
X151137952Y-98345952D01*
X151185571Y-98441190D01*
X151233190Y-98488809D01*
X151328429Y-98536428D01*
X151518905Y-98536428D01*
X151614143Y-98488809D01*
X151661762Y-98441190D01*
X151709381Y-98345952D01*
X151709381Y-98155475D01*
X151661762Y-98060237D01*
X151614143Y-98012618D01*
X151518905Y-97964999D01*
X151328429Y-97964999D01*
X151233190Y-98012618D01*
X151185571Y-98060237D01*
X151137952Y-98155475D01*
%LPC*%
D13*
X146177000Y-78740000D03*
D14*
X146177000Y-81240000D03*
D13*
X155067000Y-85090000D03*
D14*
X152567000Y-85090000D03*
D15*
X125857000Y-78740000D03*
X125857000Y-81280000D03*
X125857000Y-83820000D03*
X125857000Y-86360000D03*
X125857000Y-88900000D03*
X125857000Y-91440000D03*
X125857000Y-93980000D03*
X125857000Y-96520000D03*
X125857000Y-99060000D03*
X125857000Y-101600000D03*
X125857000Y-104140000D03*
X125857000Y-106680000D03*
X125857000Y-109220000D03*
X125857000Y-111760000D03*
X141097000Y-111760000D03*
X141097000Y-109220000D03*
X141097000Y-106680000D03*
X141097000Y-104140000D03*
X141097000Y-101600000D03*
X141097000Y-99060000D03*
X141097000Y-96520000D03*
X141097000Y-93980000D03*
X141097000Y-91440000D03*
X141097000Y-88900000D03*
X141097000Y-86360000D03*
X141097000Y-83820000D03*
X141097000Y-81280000D03*
X141097000Y-78740000D03*
X128397000Y-78740000D03*
X128397000Y-81280000D03*
X128397000Y-83820000D03*
X128397000Y-86360000D03*
X128397000Y-88900000D03*
X128397000Y-91440000D03*
X128397000Y-93980000D03*
X128397000Y-96520000D03*
X128397000Y-99060000D03*
X128397000Y-101600000D03*
X128397000Y-104140000D03*
X128397000Y-106680000D03*
X128397000Y-109220000D03*
X128397000Y-111760000D03*
X143637000Y-111760000D03*
X143637000Y-109220000D03*
X143637000Y-106680000D03*
X143637000Y-104140000D03*
X143637000Y-101600000D03*
X143637000Y-99060000D03*
X143637000Y-96520000D03*
X143637000Y-93980000D03*
X143637000Y-91440000D03*
X143637000Y-88900000D03*
X143637000Y-86360000D03*
X143637000Y-83820000D03*
X143637000Y-81280000D03*
X143637000Y-78740000D03*
X123317000Y-83820000D03*
X123317000Y-86360000D03*
X123317000Y-88900000D03*
X123317000Y-91440000D03*
X123317000Y-93980000D03*
X123317000Y-96520000D03*
X123317000Y-99060000D03*
X123317000Y-101600000D03*
X123317000Y-104140000D03*
X123317000Y-106680000D03*
X123317000Y-109220000D03*
X123317000Y-111760000D03*
X138557000Y-111760000D03*
X138557000Y-109220000D03*
X138557000Y-106680000D03*
X138557000Y-104140000D03*
X138557000Y-101600000D03*
X138557000Y-99060000D03*
X138557000Y-96520000D03*
X138557000Y-93980000D03*
X138557000Y-91440000D03*
X138557000Y-88900000D03*
X138557000Y-86360000D03*
X138557000Y-83820000D03*
D16*
X113030000Y-91440000D03*
X113030000Y-93980000D03*
X113030000Y-96520000D03*
X158750000Y-91440000D03*
X158750000Y-93980000D03*
X158750000Y-96520000D03*
X115570000Y-91440000D03*
X115570000Y-93980000D03*
X115570000Y-96520000D03*
X118110000Y-91440000D03*
X118110000Y-93980000D03*
X118110000Y-96520000D03*
X120650000Y-91440000D03*
X120650000Y-93980000D03*
X120650000Y-96520000D03*
X161290000Y-91440000D03*
X161290000Y-93980000D03*
X161290000Y-96520000D03*
X163830000Y-91440000D03*
X163830000Y-93980000D03*
X163830000Y-96520000D03*
D17*
X139700000Y-116205000D03*
D18*
X137160000Y-116205000D03*
D17*
X147320000Y-116205000D03*
D18*
X144780000Y-116205000D03*
D17*
X154940000Y-116205000D03*
D18*
X152400000Y-116205000D03*
D17*
X153797000Y-79375000D03*
D18*
X151257000Y-79375000D03*
D17*
X153797000Y-81915000D03*
D18*
X151257000Y-81915000D03*
D15*
X147447000Y-88900000D03*
X147447000Y-91440000D03*
X147447000Y-93980000D03*
X147447000Y-96520000D03*
X147447000Y-99060000D03*
X147447000Y-101600000D03*
X147447000Y-104140000D03*
X147447000Y-106680000D03*
X147447000Y-109220000D03*
X147447000Y-111760000D03*
X155067000Y-111760000D03*
X155067000Y-109220000D03*
X155067000Y-106680000D03*
X155067000Y-104140000D03*
X155067000Y-101600000D03*
X155067000Y-99060000D03*
X155067000Y-96520000D03*
X155067000Y-93980000D03*
X155067000Y-91440000D03*
X155067000Y-88900000D03*
D19*
X128905000Y-116205000D03*
D20*
X126365000Y-116205000D03*
X123825000Y-116205000D03*
D17*
X132080000Y-116205000D03*
M02*
