G04 #@! TF.FileFunction,Legend,Top*
%FSLAX46Y46*%
G04 Gerber Fmt 4.6, Leading zero omitted, Abs format (unit mm)*
G04 Created by KiCad (PCBNEW 4.0.0-rc2-stable) date 20.01.2016 09:53:01*
%MOMM*%
G01*
G04 APERTURE LIST*
%ADD10C,0.100000*%
%ADD11C,0.200000*%
%ADD12C,0.150000*%
%ADD13R,1.700000X1.700000*%
%ADD14C,1.700000*%
%ADD15R,2.432000X2.127200*%
%ADD16O,2.432000X2.127200*%
%ADD17O,2.000000X2.000000*%
%ADD18R,2.127200X2.127200*%
%ADD19O,2.127200X2.127200*%
%ADD20R,2.127200X2.432000*%
%ADD21O,2.127200X2.432000*%
%ADD22R,2.432000X2.432000*%
%ADD23O,2.432000X2.432000*%
G04 APERTURE END LIST*
D10*
D11*
X146177000Y-114046000D02*
X144907000Y-114046000D01*
X128397000Y-114046000D02*
X129667000Y-114046000D01*
X146177000Y-78994000D02*
X144907000Y-78994000D01*
X128397000Y-78994000D02*
X129667000Y-78994000D01*
X146177000Y-114046000D02*
X146177000Y-78994000D01*
X128397000Y-114046000D02*
X128397000Y-78994000D01*
D12*
X150360095Y-117927381D02*
X150360095Y-116927381D01*
X150931524Y-117927381D02*
X150502952Y-117355952D01*
X150931524Y-116927381D02*
X150360095Y-117498810D01*
X143311524Y-117832143D02*
X143263905Y-117879762D01*
X143121048Y-117927381D01*
X143025810Y-117927381D01*
X142882952Y-117879762D01*
X142787714Y-117784524D01*
X142740095Y-117689286D01*
X142692476Y-117498810D01*
X142692476Y-117355952D01*
X142740095Y-117165476D01*
X142787714Y-117070238D01*
X142882952Y-116975000D01*
X143025810Y-116927381D01*
X143121048Y-116927381D01*
X143263905Y-116975000D01*
X143311524Y-117022619D01*
X135453429Y-117403571D02*
X135596286Y-117451190D01*
X135643905Y-117498810D01*
X135691524Y-117594048D01*
X135691524Y-117736905D01*
X135643905Y-117832143D01*
X135596286Y-117879762D01*
X135501048Y-117927381D01*
X135120095Y-117927381D01*
X135120095Y-116927381D01*
X135453429Y-116927381D01*
X135548667Y-116975000D01*
X135596286Y-117022619D01*
X135643905Y-117117857D01*
X135643905Y-117213095D01*
X135596286Y-117308333D01*
X135548667Y-117355952D01*
X135453429Y-117403571D01*
X135120095Y-117403571D01*
X158242000Y-119380000D02*
X158242000Y-99695000D01*
X123317000Y-119380000D02*
X158242000Y-119380000D01*
X123317000Y-99695000D02*
X123317000Y-119380000D01*
X123317000Y-78740000D02*
X123317000Y-90805000D01*
X158242000Y-78740000D02*
X123317000Y-78740000D01*
X158242000Y-90805000D02*
X158242000Y-78740000D01*
X117602000Y-90805000D02*
X123317000Y-90805000D01*
X117602000Y-99695000D02*
X117602000Y-90805000D01*
X123317000Y-99695000D02*
X117602000Y-99695000D01*
X162052000Y-99695000D02*
X158242000Y-99695000D01*
X162052000Y-90805000D02*
X162052000Y-99695000D01*
X158242000Y-90805000D02*
X162052000Y-90805000D01*
X148697000Y-79760000D02*
X148697000Y-82760000D01*
X146197000Y-82760000D02*
X146197000Y-79760000D01*
X156587000Y-87610000D02*
X153587000Y-87610000D01*
X153587000Y-85110000D02*
X156587000Y-85110000D01*
X158877000Y-93980000D02*
X158877000Y-99060000D01*
X158877000Y-99060000D02*
X161417000Y-99060000D01*
X161417000Y-99060000D02*
X161417000Y-93980000D01*
X161697000Y-91160000D02*
X161697000Y-92710000D01*
X161417000Y-93980000D02*
X158877000Y-93980000D01*
X158597000Y-92710000D02*
X158597000Y-91160000D01*
X158597000Y-91160000D02*
X161697000Y-91160000D01*
X148852000Y-87875000D02*
X148852000Y-89145000D01*
X156202000Y-87875000D02*
X156202000Y-89145000D01*
X156202000Y-115325000D02*
X156202000Y-114055000D01*
X148852000Y-115325000D02*
X148852000Y-114055000D01*
X148852000Y-87875000D02*
X156202000Y-87875000D01*
X148852000Y-115325000D02*
X156202000Y-115325000D01*
X148852000Y-89145000D02*
X147917000Y-89145000D01*
X118237000Y-93980000D02*
X118237000Y-99060000D01*
X117957000Y-91160000D02*
X119507000Y-91160000D01*
X120777000Y-91440000D02*
X120777000Y-93980000D01*
X120777000Y-93980000D02*
X118237000Y-93980000D01*
X118237000Y-99060000D02*
X123317000Y-99060000D01*
X123317000Y-99060000D02*
X123317000Y-93980000D01*
X117957000Y-91160000D02*
X117957000Y-92710000D01*
X123317000Y-91440000D02*
X120777000Y-91440000D01*
X123317000Y-93980000D02*
X123317000Y-91440000D01*
X129667000Y-116205000D02*
X124587000Y-116205000D01*
X124587000Y-116205000D02*
X124587000Y-118745000D01*
X124587000Y-118745000D02*
X129667000Y-118745000D01*
X132487000Y-119025000D02*
X130937000Y-119025000D01*
X129667000Y-118745000D02*
X129667000Y-116205000D01*
X130937000Y-115925000D02*
X132487000Y-115925000D01*
X132487000Y-115925000D02*
X132487000Y-119025000D01*
X153797000Y-81915000D02*
X151257000Y-81915000D01*
X156617000Y-82195000D02*
X155067000Y-82195000D01*
X153797000Y-81915000D02*
X153797000Y-79375000D01*
X155067000Y-79095000D02*
X156617000Y-79095000D01*
X156617000Y-79095000D02*
X156617000Y-82195000D01*
X153797000Y-79375000D02*
X151257000Y-79375000D01*
X151257000Y-79375000D02*
X151257000Y-81915000D01*
X153797000Y-84455000D02*
X151257000Y-84455000D01*
X156617000Y-84735000D02*
X155067000Y-84735000D01*
X153797000Y-84455000D02*
X153797000Y-81915000D01*
X155067000Y-81635000D02*
X156617000Y-81635000D01*
X156617000Y-81635000D02*
X156617000Y-84735000D01*
X153797000Y-81915000D02*
X151257000Y-81915000D01*
X151257000Y-81915000D02*
X151257000Y-84455000D01*
X153797000Y-118745000D02*
X151257000Y-118745000D01*
X156617000Y-119025000D02*
X155067000Y-119025000D01*
X153797000Y-118745000D02*
X153797000Y-116205000D01*
X155067000Y-115925000D02*
X156617000Y-115925000D01*
X156617000Y-115925000D02*
X156617000Y-119025000D01*
X153797000Y-116205000D02*
X151257000Y-116205000D01*
X151257000Y-116205000D02*
X151257000Y-118745000D01*
X146177000Y-118745000D02*
X143637000Y-118745000D01*
X148997000Y-119025000D02*
X147447000Y-119025000D01*
X146177000Y-118745000D02*
X146177000Y-116205000D01*
X147447000Y-115925000D02*
X148997000Y-115925000D01*
X148997000Y-115925000D02*
X148997000Y-119025000D01*
X146177000Y-116205000D02*
X143637000Y-116205000D01*
X143637000Y-116205000D02*
X143637000Y-118745000D01*
X138557000Y-118745000D02*
X136017000Y-118745000D01*
X141377000Y-119025000D02*
X139827000Y-119025000D01*
X138557000Y-118745000D02*
X138557000Y-116205000D01*
X139827000Y-115925000D02*
X141377000Y-115925000D01*
X141377000Y-115925000D02*
X141377000Y-119025000D01*
X138557000Y-116205000D02*
X136017000Y-116205000D01*
X136017000Y-116205000D02*
X136017000Y-118745000D01*
X152027000Y-104663571D02*
X151979381Y-104758809D01*
X151979381Y-104901666D01*
X152027000Y-105044524D01*
X152122238Y-105139762D01*
X152217476Y-105187381D01*
X152407952Y-105235000D01*
X152550810Y-105235000D01*
X152741286Y-105187381D01*
X152836524Y-105139762D01*
X152931762Y-105044524D01*
X152979381Y-104901666D01*
X152979381Y-104806428D01*
X152931762Y-104663571D01*
X152884143Y-104615952D01*
X152550810Y-104615952D01*
X152550810Y-104806428D01*
X152693667Y-104235000D02*
X152693667Y-103758809D01*
X152979381Y-104330238D02*
X151979381Y-103996905D01*
X152979381Y-103663571D01*
X152979381Y-102854047D02*
X152979381Y-103330238D01*
X151979381Y-103330238D01*
X152979381Y-101996904D02*
X152979381Y-102568333D01*
X152979381Y-102282619D02*
X151979381Y-102282619D01*
X152122238Y-102377857D01*
X152217476Y-102473095D01*
X152265095Y-102568333D01*
X151979381Y-101139761D02*
X151979381Y-101330238D01*
X152027000Y-101425476D01*
X152074619Y-101473095D01*
X152217476Y-101568333D01*
X152407952Y-101615952D01*
X152788905Y-101615952D01*
X152884143Y-101568333D01*
X152931762Y-101520714D01*
X152979381Y-101425476D01*
X152979381Y-101234999D01*
X152931762Y-101139761D01*
X152884143Y-101092142D01*
X152788905Y-101044523D01*
X152550810Y-101044523D01*
X152455571Y-101092142D01*
X152407952Y-101139761D01*
X152360333Y-101234999D01*
X152360333Y-101425476D01*
X152407952Y-101520714D01*
X152455571Y-101568333D01*
X152550810Y-101615952D01*
X151979381Y-100758809D02*
X152979381Y-100425476D01*
X151979381Y-100092142D01*
X152407952Y-99615952D02*
X152360333Y-99711190D01*
X152312714Y-99758809D01*
X152217476Y-99806428D01*
X152169857Y-99806428D01*
X152074619Y-99758809D01*
X152027000Y-99711190D01*
X151979381Y-99615952D01*
X151979381Y-99425475D01*
X152027000Y-99330237D01*
X152074619Y-99282618D01*
X152169857Y-99234999D01*
X152217476Y-99234999D01*
X152312714Y-99282618D01*
X152360333Y-99330237D01*
X152407952Y-99425475D01*
X152407952Y-99615952D01*
X152455571Y-99711190D01*
X152503190Y-99758809D01*
X152598429Y-99806428D01*
X152788905Y-99806428D01*
X152884143Y-99758809D01*
X152931762Y-99711190D01*
X152979381Y-99615952D01*
X152979381Y-99425475D01*
X152931762Y-99330237D01*
X152884143Y-99282618D01*
X152788905Y-99234999D01*
X152598429Y-99234999D01*
X152503190Y-99282618D01*
X152455571Y-99330237D01*
X152407952Y-99425475D01*
X131159524Y-79557619D02*
X131207143Y-79510000D01*
X131302381Y-79462381D01*
X131540477Y-79462381D01*
X131635715Y-79510000D01*
X131683334Y-79557619D01*
X131730953Y-79652857D01*
X131730953Y-79748095D01*
X131683334Y-79890952D01*
X131111905Y-80462381D01*
X131730953Y-80462381D01*
X132064286Y-79462381D02*
X132730953Y-79462381D01*
X132302381Y-80462381D01*
X133588096Y-79462381D02*
X133111905Y-79462381D01*
X133064286Y-79938571D01*
X133111905Y-79890952D01*
X133207143Y-79843333D01*
X133445239Y-79843333D01*
X133540477Y-79890952D01*
X133588096Y-79938571D01*
X133635715Y-80033810D01*
X133635715Y-80271905D01*
X133588096Y-80367143D01*
X133540477Y-80414762D01*
X133445239Y-80462381D01*
X133207143Y-80462381D01*
X133111905Y-80414762D01*
X133064286Y-80367143D01*
X134588096Y-80462381D02*
X134016667Y-80462381D01*
X134302381Y-80462381D02*
X134302381Y-79462381D01*
X134207143Y-79605238D01*
X134111905Y-79700476D01*
X134016667Y-79748095D01*
X134969048Y-79557619D02*
X135016667Y-79510000D01*
X135111905Y-79462381D01*
X135350001Y-79462381D01*
X135445239Y-79510000D01*
X135492858Y-79557619D01*
X135540477Y-79652857D01*
X135540477Y-79748095D01*
X135492858Y-79890952D01*
X134921429Y-80462381D01*
X135540477Y-80462381D01*
%LPC*%
D13*
X147447000Y-80010000D03*
D14*
X147447000Y-82510000D03*
D13*
X156337000Y-86360000D03*
D14*
X153837000Y-86360000D03*
D15*
X160147000Y-92710000D03*
D16*
X160147000Y-95250000D03*
X160147000Y-97790000D03*
D17*
X148717000Y-90170000D03*
X148717000Y-92710000D03*
X148717000Y-95250000D03*
X148717000Y-97790000D03*
X148717000Y-100330000D03*
X148717000Y-102870000D03*
X148717000Y-105410000D03*
X148717000Y-107950000D03*
X148717000Y-110490000D03*
X148717000Y-113030000D03*
X156337000Y-113030000D03*
X156337000Y-110490000D03*
X156337000Y-107950000D03*
X156337000Y-105410000D03*
X156337000Y-102870000D03*
X156337000Y-100330000D03*
X156337000Y-97790000D03*
X156337000Y-95250000D03*
X156337000Y-92710000D03*
X156337000Y-90170000D03*
D18*
X119507000Y-92710000D03*
D19*
X122047000Y-92710000D03*
X119507000Y-95250000D03*
X122047000Y-95250000D03*
X119507000Y-97790000D03*
X122047000Y-97790000D03*
D20*
X130937000Y-117475000D03*
D21*
X128397000Y-117475000D03*
X125857000Y-117475000D03*
D22*
X155067000Y-80645000D03*
D23*
X152527000Y-80645000D03*
D22*
X155067000Y-83185000D03*
D23*
X152527000Y-83185000D03*
D22*
X155067000Y-117475000D03*
D23*
X152527000Y-117475000D03*
D22*
X147447000Y-117475000D03*
D23*
X144907000Y-117475000D03*
D22*
X139827000Y-117475000D03*
D23*
X137287000Y-117475000D03*
D17*
X127127000Y-80010000D03*
X127127000Y-82550000D03*
X127127000Y-85090000D03*
X127127000Y-87630000D03*
X127127000Y-90170000D03*
X127127000Y-92710000D03*
X127127000Y-95250000D03*
X127127000Y-97790000D03*
X127127000Y-100330000D03*
X127127000Y-102870000D03*
X127127000Y-105410000D03*
X127127000Y-107950000D03*
X127127000Y-110490000D03*
X127127000Y-113030000D03*
X142367000Y-113030000D03*
X142367000Y-110490000D03*
X142367000Y-107950000D03*
X142367000Y-105410000D03*
X142367000Y-102870000D03*
X142367000Y-100330000D03*
X142367000Y-97790000D03*
X142367000Y-95250000D03*
X142367000Y-92710000D03*
X142367000Y-90170000D03*
X142367000Y-87630000D03*
X142367000Y-85090000D03*
X142367000Y-82550000D03*
X142367000Y-80010000D03*
X129667000Y-80010000D03*
X129667000Y-82550000D03*
X129667000Y-85090000D03*
X129667000Y-87630000D03*
X129667000Y-90170000D03*
X129667000Y-92710000D03*
X129667000Y-95250000D03*
X129667000Y-97790000D03*
X129667000Y-100330000D03*
X129667000Y-102870000D03*
X129667000Y-105410000D03*
X129667000Y-107950000D03*
X129667000Y-110490000D03*
X129667000Y-113030000D03*
X144907000Y-113030000D03*
X144907000Y-110490000D03*
X144907000Y-107950000D03*
X144907000Y-105410000D03*
X144907000Y-102870000D03*
X144907000Y-100330000D03*
X144907000Y-97790000D03*
X144907000Y-95250000D03*
X144907000Y-92710000D03*
X144907000Y-90170000D03*
X144907000Y-87630000D03*
X144907000Y-85090000D03*
X144907000Y-82550000D03*
X144907000Y-80010000D03*
X124587000Y-85090000D03*
X124587000Y-87630000D03*
X124587000Y-90170000D03*
X124587000Y-92710000D03*
X124587000Y-95250000D03*
X124587000Y-97790000D03*
X124587000Y-100330000D03*
X124587000Y-102870000D03*
X124587000Y-105410000D03*
X124587000Y-107950000D03*
X124587000Y-110490000D03*
X124587000Y-113030000D03*
X139827000Y-113030000D03*
X139827000Y-110490000D03*
X139827000Y-107950000D03*
X139827000Y-105410000D03*
X139827000Y-102870000D03*
X139827000Y-100330000D03*
X139827000Y-97790000D03*
X139827000Y-95250000D03*
X139827000Y-92710000D03*
X139827000Y-90170000D03*
X139827000Y-87630000D03*
X139827000Y-85090000D03*
M02*
